<svg xmlns="http://www.w3.org/2000/svg" viewBox="0 0 512 512">
<defs><clipPath id="r"><rect width="512" height="512" rx="112"/></clipPath></defs>
<g clip-path="url(#r)">
<rect width="512" height="512" fill="#5aa83c"/>
<rect x="64" width="96" height="512" fill="#4e9a33"/><rect x="256" width="96" height="512" fill="#4e9a33"/>
<path d="M-20 400C120 330 360 450 540 360v200H-20z" fill="#d6b27c"/>
<path d="M-20 400C120 330 360 450 540 360" fill="none" stroke="#b98f55" stroke-width="10" stroke-dasharray="26 22"/>
<g stroke="#fff" stroke-width="16" stroke-linecap="round" opacity=".85"><path d="M40 250h70"/><path d="M20 300h80"/><path d="M50 200h50"/></g>
<path d="M150 150 128 70" stroke="#222" stroke-width="9" stroke-linecap="round"/><circle cx="127" cy="66" r="15" fill="#ff3030"/>
<path d="M118 312h282l-6-26-70-20-44-50-86-4-44 34-30 18z" fill="#e53935" stroke="#7a1512" stroke-width="10" stroke-linejoin="round"/>
<path d="M262 222l40 44h-92l-2-44z" fill="#1d2733"/>
<rect x="104" y="176" width="92" height="18" rx="6" fill="#fff" stroke="#7a1512" stroke-width="6"/>
<path d="M138 194l12 40M170 194l6 36" stroke="#333" stroke-width="10"/>
<circle cx="178" cy="318" r="52" fill="#222"/><circle cx="178" cy="318" r="22" fill="#ddd"/>
<circle cx="352" cy="318" r="52" fill="#222"/><circle cx="352" cy="318" r="22" fill="#ddd"/>
<g transform="translate(372 64)"><rect width="92" height="64" fill="#fff"/><path d="M0 0h23v16H0zM46 0h23v16H46zM23 16h23v16H23zM69 16h23v16H69zM0 32h23v16H0zM46 32h23v16H46zM23 48h23v16H23zM69 48h23v16H69z" fill="#222"/></g>
<path d="M372 64v130" stroke="#8a5a33" stroke-width="8"/>
</g>
</svg>
